<svg width="74" height="66" viewBox="0 0 74 66" fill="none" xmlns="http://www.w3.org/2000/svg">
<mask id="mask0_1_545" style="mask-type:alpha" maskUnits="userSpaceOnUse" x="0" y="0" width="74" height="66">
<path d="M74 19.925L37 65.25L0 19.925L8.325 6.975L16.1875 3.275L26.3625 0.5H47.6375L57.8125 3.275L65.675 6.975L74 19.925Z" fill="#46ACFA"/>
</mask>
<g mask="url(#mask0_1_545)">
<rect x="-29.0716" y="-33.1963" width="132.143" height="132.143" fill="#6BBEFE"/>
<path d="M73.9998 19.9252L36.9998 65.2502L-0.000183105 19.9252L8.32482 6.97524L16.1873 3.27524L26.3623 0.500244H47.6373L57.8123 3.27524L65.6748 6.97524L73.9998 19.9252Z" fill="#46ACFA"/>
<path d="M49.9496 13.4502V28.2502L43.4746 20.8502L49.9496 13.4502Z" fill="#8CCDFF"/>
<path d="M24.0499 28.2502L36.9999 13.4502L49.9499 28.2502H24.0499Z" fill="#78C2FA"/>
<path d="M24.0498 28.2502L11.5623 25.4752L24.0498 13.4502V28.2502Z" fill="#A6D8FF"/>
<path d="M49.9498 28.2502L62.4373 25.4752L49.9498 13.4502V28.2502Z" fill="#A6D8FF"/>
<path d="M36.9999 13.4502H24.0499L30.5249 20.8502L36.9999 13.4502Z" fill="#A8D9FF"/>
<path d="M24.0498 13.4502L12.0248 9.75024L11.5623 25.4752L24.0498 13.4502Z" fill="#52B4FF"/>
<path d="M49.9498 13.4502L61.9748 9.75024L62.4373 25.4752L49.9498 13.4502Z" fill="#4CAEFA"/>
<path d="M12.0248 9.75024L-0.000183105 19.9252L11.5623 25.4752L12.0248 9.75024Z" fill="#A6D8FF"/>
<path d="M61.9746 9.75024L73.9996 19.9252L62.4371 25.4752L61.9746 9.75024Z" fill="#A6D8FF"/>
<path d="M36.9998 13.4502H49.9498L43.4748 20.8502L36.9998 13.4502Z" fill="#A8D9FF"/>
<path d="M24.0499 13.4502V28.2502L30.5249 20.8502L24.0499 13.4502Z" fill="#8CCDFF"/>
<path d="M49.9498 28.2501L36.9998 74.5001L62.4373 25.4751L49.9498 28.2501Z" fill="#61B8FA"/>
<path d="M73.9998 19.925L36.9998 74.5L62.4373 25.475L73.9998 19.925Z" fill="#41AAFA"/>
<path d="M36.9999 74.5002L24.0499 28.2502H49.9499L36.9999 74.5002Z" fill="#94D1FF"/>
<path d="M36.9998 28.2502H49.9498L36.9998 74.5002V28.2502Z" fill="#94D1FF"/>
<path d="M49.9498 28.2502H36.9998L45.0936 45.594L49.9498 28.2502Z" fill="#BFE3FF"/>
<path d="M24.0499 28.2502H36.9999L28.9062 45.594L24.0499 28.2502Z" fill="#BFE3FF"/>
<path d="M24.0498 28.2501L36.9998 74.5001L11.5623 25.4751L24.0498 28.2501Z" fill="#4AAEFA"/>
<path d="M-0.000183105 19.925L36.9998 74.5L11.5623 25.475L-0.000183105 19.925Z" fill="#289FFA"/>
<path d="M-0.000183105 19.9251L8.32482 6.9751L12.0248 9.7501L-0.000183105 19.9251Z" fill="#4AAEFA"/>
<path d="M73.9996 19.9251L65.6746 6.9751L61.9746 9.7501L73.9996 19.9251Z" fill="#55B2FA"/>
<path d="M26.3623 0.500244H47.6373L57.8123 3.27524L65.6748 6.97524L61.9748 9.75024L49.9498 13.4502H24.0498L12.0248 9.75024L8.32477 6.97524L16.1873 3.27524L26.3623 0.500244Z" fill="#7EC7FF"/>
<rect x="-3.00031" width="77" height="65" fill="url(#paint0_linear_1_545)"/>
</g>
<defs>
<linearGradient id="paint0_linear_1_545" x1="-3.0003" y1="5.89514e-05" x2="61.0779" y2="75.9081" gradientUnits="userSpaceOnUse">
<stop stop-color="#24FF00" stop-opacity="0.52"/>
<stop offset="1" stop-color="white" stop-opacity="0"/>
</linearGradient>
</defs>
</svg>
