<svg width="26" height="26" viewBox="0 0 26 26" fill="none" xmlns="http://www.w3.org/2000/svg">
<path fill-rule="evenodd" clip-rule="evenodd" d="M12.7124 0C5.71314 0 0.0390625 5.8306 0.0390625 12.8926C0.0390625 12.9284 0.0392108 12.9642 0.0394982 13L2.42281 12.8897C8.05149 12.6293 12.5562 8.0842 12.8143 2.4051L12.9167 0.1524C12.8911 0.0634 12.8094 0 12.7124 0ZM25.475 13.0154L23.4245 13.1103C17.7958 13.3707 13.2911 17.9158 13.033 23.5949L12.9237 25.9995C12.9611 25.9998 12.9987 26 13.0361 26C20.0289 26 25.8082 20.2805 25.8082 13.2251C25.8082 13.1028 25.7066 13.0054 25.5855 13.0107C25.5521 13.0122 25.5153 13.0138 25.475 13.0154ZM12.9237 25.9995L12.8143 23.5949C12.5562 17.9158 8.05149 13.3707 2.42281 13.1103L0.0394982 13C0.0975185 20.0935 5.89372 25.9377 12.9237 25.9995Z" fill="white"/>
<path d="M15.3925 7.53614L14.7243 10.2328C14.6204 10.6519 14.5685 10.8615 14.6249 11.0091C14.6741 11.138 14.7739 11.2406 14.9008 11.2925C15.046 11.3521 15.2546 11.3035 15.6718 11.2064L18.5699 10.5316C20.2281 10.1455 21.0571 9.95254 21.7397 9.53354C22.3436 9.16294 22.862 8.66624 23.2599 8.07684C23.7097 7.41054 23.9435 6.58514 24.411 4.93424L25.3844 1.49684C25.5213 1.01334 25.5898 0.771544 25.5271 0.613044C25.4726 0.475144 25.3601 0.368744 25.2202 0.322744C25.0594 0.269944 24.8247 0.354544 24.3553 0.523644L20.418 1.94244C18.9569 2.46894 18.2263 2.73224 17.6351 3.17434C17.1118 3.56574 16.6699 4.05744 16.3351 4.62134C15.9569 5.25824 15.7688 6.01754 15.3925 7.53614Z" fill="white"/>
</svg>
