<svg width="25" height="25" viewBox="0 0 25 25" fill="none" xmlns="http://www.w3.org/2000/svg">
<path d="M12.0586 0.847656C15.319 0.847656 15.7258 0.859622 17.005 0.919449C18.283 0.979277 19.153 1.1791 19.9186 1.47585C20.7106 1.77977 21.3778 2.19138 22.045 2.85547C22.6552 3.45362 23.1273 4.17717 23.4286 4.97576C23.725 5.73796 23.9266 6.60666 23.9866 7.88098C24.043 9.15651 24.0586 9.56214 24.0586 12.8132C24.0586 16.0642 24.0466 16.4698 23.9866 17.7453C23.9266 19.0197 23.725 19.8872 23.4286 20.6506C23.1282 21.4496 22.6559 22.1733 22.045 22.7709C21.4449 23.3791 20.7194 23.8499 19.9186 24.1505C19.1542 24.446 18.283 24.6471 17.005 24.7069C15.7258 24.7631 15.319 24.7787 12.0586 24.7787C8.79819 24.7787 8.39139 24.7667 7.11219 24.7069C5.83419 24.6471 4.96419 24.446 4.19859 24.1505C3.39739 23.8507 2.67163 23.3798 2.07219 22.7709C1.46188 22.1728 0.989711 21.4492 0.688594 20.6506C0.390994 19.8884 0.190594 19.0197 0.130594 17.7453C0.0741937 16.4698 0.0585938 16.0642 0.0585938 12.8132C0.0585938 9.56214 0.0705937 9.15651 0.130594 7.88098C0.190594 6.60546 0.390994 5.73916 0.688594 4.97576C0.988877 4.17668 1.46116 3.45293 2.07219 2.85547C2.6718 2.2467 3.39751 1.77586 4.19859 1.47585C4.96419 1.1791 5.83299 0.979277 7.11219 0.919449C8.39139 0.863211 8.79819 0.847656 12.0586 0.847656ZM12.0586 6.83041C10.4673 6.83041 8.94117 7.46073 7.81595 8.58272C6.69074 9.7047 6.05859 11.2264 6.05859 12.8132C6.05859 14.3999 6.69074 15.9216 7.81595 17.0436C8.94117 18.1656 10.4673 18.7959 12.0586 18.7959C13.6499 18.7959 15.176 18.1656 16.3012 17.0436C17.4265 15.9216 18.0586 14.3999 18.0586 12.8132C18.0586 11.2264 17.4265 9.7047 16.3012 8.58272C15.176 7.46073 13.6499 6.83041 12.0586 6.83041V6.83041ZM19.8586 6.53127C19.8586 6.13459 19.7006 5.75416 19.4193 5.47366C19.138 5.19317 18.7564 5.03558 18.3586 5.03558C17.9608 5.03558 17.5792 5.19317 17.2979 5.47366C17.0166 5.75416 16.8586 6.13459 16.8586 6.53127C16.8586 6.92795 17.0166 7.30839 17.2979 7.58888C17.5792 7.86938 17.9608 8.02696 18.3586 8.02696C18.7564 8.02696 19.138 7.86938 19.4193 7.58888C19.7006 7.30839 19.8586 6.92795 19.8586 6.53127ZM12.0586 9.22351C13.0134 9.22351 13.929 9.60171 14.6042 10.2749C15.2793 10.9481 15.6586 11.8611 15.6586 12.8132C15.6586 13.7652 15.2793 14.6782 14.6042 15.3514C13.929 16.0246 13.0134 16.4028 12.0586 16.4028C11.1038 16.4028 10.1881 16.0246 9.51301 15.3514C8.83788 14.6782 8.45859 13.7652 8.45859 12.8132C8.45859 11.8611 8.83788 10.9481 9.51301 10.2749C10.1881 9.60171 11.1038 9.22351 12.0586 9.22351V9.22351Z" fill="#F8F8F8"/>
</svg>
