<svg width="25" height="25" viewBox="0 0 25 25" fill="none" xmlns="http://www.w3.org/2000/svg">
<path fill-rule="evenodd" clip-rule="evenodd" d="M24.668 12.8141C24.668 19.4221 19.295 24.7796 12.668 24.7796C6.04097 24.7796 0.667969 19.4221 0.667969 12.8141C0.667969 6.20619 6.04097 0.848633 12.668 0.848633C19.295 0.848633 24.668 6.20619 24.668 12.8141ZM13.098 9.68217C11.931 10.1658 9.59797 11.1679 6.09997 12.6875C5.53197 12.9129 5.23397 13.1332 5.20697 13.3486C5.16097 13.7135 5.61897 13.8571 6.24097 14.0516C6.32597 14.0785 6.41397 14.1054 6.50397 14.1353C7.11697 14.3338 7.94097 14.5661 8.36897 14.5751C8.75797 14.583 9.19197 14.4235 9.67097 14.0964C12.939 11.8958 14.626 10.784 14.732 10.7601C14.807 10.7431 14.911 10.7212 14.981 10.784C15.051 10.8458 15.044 10.9635 15.037 10.9954C14.991 11.1878 13.197 12.852 12.267 13.7135C11.977 13.9818 11.772 14.1722 11.73 14.2161C11.636 14.3128 11.54 14.4056 11.448 14.4943C10.878 15.0407 10.452 15.4515 11.472 16.1216C11.962 16.4437 12.354 16.7099 12.745 16.9751C13.172 17.2653 13.598 17.5545 14.15 17.9154C14.29 18.0072 14.424 18.1019 14.555 18.1946C15.052 18.5486 15.499 18.8657 16.051 18.8158C16.371 18.7859 16.703 18.4858 16.871 17.5894C17.268 15.4695 18.05 10.8787 18.231 8.98618C18.242 8.82904 18.2353 8.67117 18.211 8.51553C18.1964 8.38983 18.135 8.27416 18.039 8.19147C17.896 8.0748 17.674 8.04987 17.574 8.05187C17.123 8.05985 16.431 8.30015 13.098 9.68217V9.68217Z" fill="#F8F8F8"/>
</svg>
