<svg width="25" height="25" viewBox="0 0 25 25" fill="none" xmlns="http://www.w3.org/2000/svg">
<path d="M12.4172 3.08533C15.0004 3.08533 17.4778 4.10961 19.3043 5.93283C21.1309 7.75605 22.1571 10.2289 22.1571 12.8073C22.1571 15.3857 21.1309 17.8586 19.3043 19.6818C17.4778 21.505 15.0004 22.5293 12.4172 22.5293V3.08533ZM12.4172 0.841797C9.23786 0.841797 6.18877 2.10245 3.94066 4.34641C1.69254 6.59038 0.429565 9.63386 0.429565 12.8073C0.429565 15.9808 1.69254 19.0242 3.94066 21.2682C6.18877 23.5122 9.23786 24.7728 12.4172 24.7728C15.5965 24.7728 18.6456 23.5122 20.8937 21.2682C23.1418 19.0242 24.4048 15.9808 24.4048 12.8073C24.4048 9.63386 23.1418 6.59038 20.8937 4.34641C18.6456 2.10245 15.5965 0.841797 12.4172 0.841797V0.841797Z" fill="white"/>
</svg>
