<svg width="22" height="25" viewBox="0 0 22 25" fill="none" xmlns="http://www.w3.org/2000/svg">
<path d="M16.9245 4.5949C16.9245 4.5949 17.5819 5.25965 16.9245 4.5949C16.0435 3.55738 15.5579 2.22497 15.5583 0.845703H11.5756V17.3315C11.5449 18.2236 11.1798 19.0687 10.5571 19.6886C9.93444 20.3086 9.10283 20.6551 8.23741 20.6553C6.40719 20.6553 4.8863 19.113 4.8863 17.1986C4.8863 14.9118 7.02586 13.1968 9.22986 13.9014V9.70018C4.78319 9.08861 0.890747 12.6517 0.890747 17.1986C0.890747 21.6258 4.44808 24.7767 8.22452 24.7767C12.2716 24.7767 15.5583 21.3865 15.5583 17.1986V8.836C17.1733 10.0324 19.1122 10.6742 21.1005 10.6707V6.56256C21.1005 6.56256 18.6774 6.68221 16.9245 4.5949Z" fill="#F8F8F8"/>
</svg>
