<svg width="24" height="25" viewBox="0 0 24 25" fill="none" xmlns="http://www.w3.org/2000/svg">
<path d="M11.5581 0.349609C5.18621 0.349609 0.0196533 5.70738 0.0196533 12.3151C0.0196533 18.9229 5.18621 24.2806 11.5581 24.2806C17.93 24.2806 23.0966 18.9229 23.0966 12.3151C23.0966 5.70738 17.93 0.349609 11.5581 0.349609ZM17.1033 9.36915C17.111 9.49468 17.111 9.62555 17.111 9.75375C17.111 13.6746 14.2315 18.191 8.96969 18.191C7.34709 18.191 5.84297 17.7023 4.5758 16.8609C4.8076 16.8877 5.0291 16.8983 5.26605 16.8983C6.60533 16.8983 7.83645 16.4283 8.81773 15.6323C7.56086 15.6056 6.50489 14.751 6.14431 13.5758C6.58473 13.6425 6.98136 13.6425 7.43466 13.5224C6.78749 13.386 6.2058 13.0215 5.78841 12.4908C5.37102 11.9601 5.14367 11.2959 5.145 10.6111V10.5737C5.5236 10.7954 5.96917 10.9316 6.43535 10.9503C6.04346 10.6795 5.72207 10.3125 5.49968 9.88203C5.27729 9.45154 5.16077 8.97079 5.16045 8.48242C5.16045 7.92955 5.29953 7.42475 5.54936 6.98673C6.26769 7.90374 7.16405 8.65373 8.18019 9.18797C9.19633 9.72221 10.3095 10.0287 11.4474 10.0876C11.043 8.0711 12.4956 6.4392 14.2418 6.4392C15.066 6.4392 15.8078 6.7971 16.3306 7.374C16.9771 7.24847 17.5952 6.99741 18.1464 6.66088C17.9326 7.34729 17.4845 7.92687 16.8895 8.29278C17.4664 8.22868 18.0227 8.06309 18.5379 7.83072C18.1489 8.42366 17.6622 8.94982 17.1033 9.36915V9.36915Z" fill="#F8F8F8"/>
</svg>
