<svg width="26" height="26" fill="none" xmlns="http://www.w3.org/2000/svg"><path fill-rule="evenodd" clip-rule="evenodd" d="M12.712 0C5.713 0 .04 5.83.04 12.893V13l2.384-.11c5.628-.26 10.133-4.806 10.391-10.485l.103-2.253A.211.211 0 0012.712 0zm12.763 13.015l-2.05.095c-5.63.26-10.134 4.806-10.392 10.485L12.923 26h.113c6.993 0 12.772-5.72 12.772-12.775a.214.214 0 00-.223-.214l-.11.004zM12.924 26l-.11-2.405c-.258-5.68-4.763-10.224-10.391-10.485L.039 13c.059 7.093 5.855 12.938 12.885 13z" fill="#fff"/><path d="M15.393 7.536l-.669 2.697c-.104.419-.155.628-.1.776.05.129.15.232.277.284.145.06.354.01.77-.087l2.899-.674c1.658-.386 2.487-.58 3.17-.998a4.974 4.974 0 001.52-1.457c.45-.666.683-1.492 1.151-3.143l.973-3.437c.137-.484.206-.725.143-.884a.498.498 0 00-.307-.29c-.16-.053-.395.032-.865.2l-3.937 1.42c-1.461.526-2.192.79-2.783 1.231a4.984 4.984 0 00-1.3 1.447c-.378.637-.566 1.397-.943 2.915z" fill="#fff"/></svg>