<svg width="25" height="25" viewBox="0 0 25 25" fill="none" xmlns="http://www.w3.org/2000/svg"><path fill-rule="evenodd" clip-rule="evenodd" d="M24.668 12.814c0 6.608-5.373 11.966-12 11.966s-12-5.358-12-11.966S6.041.85 12.668.85s12 5.357 12 11.965zm-11.57-3.132c-1.167.484-3.5 1.486-6.998 3.005-.568.226-.866.446-.893.662-.046.364.412.508 1.034.703.085.027.173.053.263.083.613.199 1.437.431 1.865.44.389.008.823-.151 1.302-.479 3.268-2.2 4.955-3.312 5.061-3.336.075-.017.179-.039.249.024.07.062.063.18.056.211-.046.193-1.84 1.857-2.77 2.719a28.3 28.3 0 00-.537.502c-.094.097-.19.19-.282.278-.57.547-.996.957.024 1.628.49.322.882.588 1.273.853.427.29.853.58 1.405.94.14.092.274.187.405.28.497.354.944.67 1.496.62.32-.03.652-.33.82-1.226.397-2.12 1.179-6.71 1.36-8.603a2.1 2.1 0 00-.02-.47.505.505 0 00-.172-.325c-.143-.116-.365-.141-.465-.14-.451.009-1.143.25-4.476 1.631z" fill="#F8F8F8"/></svg>