<svg width="74" height="66" viewBox="0 0 74 66" fill="none" xmlns="http://www.w3.org/2000/svg"><mask id="mask0_1_545" style="mask-type:alpha" maskUnits="userSpaceOnUse" x="0" y="0" width="74" height="66"><path d="M74 19.925L37 65.25 0 19.925l8.325-12.95 7.863-3.7L26.363.5h21.275l10.175 2.775 7.862 3.7L74 19.925z" fill="#46ACFA"/></mask><g mask="url(#mask0_1_545)"><path fill="#6BBEFE" d="M-29.072-33.196h132.143V98.947H-29.072z"/><path d="M74 19.925L37 65.25 0 19.925l8.325-12.95 7.862-3.7L26.362.5h21.275l10.175 2.775 7.863 3.7L74 19.925z" fill="#46ACFA"/><path d="M49.95 13.45v14.8l-6.475-7.4 6.475-7.4z" fill="#8CCDFF"/><path d="M24.05 28.25L37 13.45l12.95 14.8h-25.9z" fill="#78C2FA"/><path d="M24.05 28.25l-12.488-2.775L24.05 13.45v14.8zm25.9 0l12.487-2.775L49.95 13.45v14.8z" fill="#A6D8FF"/><path d="M37 13.45H24.05l6.475 7.4L37 13.45z" fill="#A8D9FF"/><path d="M24.05 13.45l-12.025-3.7-.463 15.725L24.05 13.45z" fill="#52B4FF"/><path d="M49.95 13.45l12.025-3.7.462 15.725L49.95 13.45z" fill="#4CAEFA"/><path d="M12.025 9.75L0 19.925l11.562 5.55.463-15.725zm49.95 0L74 19.925l-11.563 5.55-.462-15.725z" fill="#A6D8FF"/><path d="M37 13.45h12.95l-6.475 7.4L37 13.45z" fill="#A8D9FF"/><path d="M24.05 13.45v14.8l6.475-7.4-6.475-7.4z" fill="#8CCDFF"/><path d="M49.95 28.25L37 74.5l25.437-49.025L49.95 28.25z" fill="#61B8FA"/><path d="M74 19.925L37 74.5l25.437-49.025L74 19.925z" fill="#41AAFA"/><path d="M37 74.5L24.05 28.25h25.9L37 74.5z" fill="#94D1FF"/><path d="M37 28.25h12.95L37 74.5V28.25z" fill="#94D1FF"/><path d="M49.95 28.25H37l8.094 17.344L49.95 28.25zm-25.9 0H37l-8.094 17.344L24.05 28.25z" fill="#BFE3FF"/><path d="M24.05 28.25L37 74.5 11.562 25.475 24.05 28.25z" fill="#4AAEFA"/><path d="M0 19.925L37 74.5 11.562 25.475 0 19.925z" fill="#289FFA"/><path d="M0 19.925l8.325-12.95 3.7 2.775L0 19.925z" fill="#4AAEFA"/><path d="M74 19.925l-8.325-12.95-3.7 2.775L74 19.925z" fill="#55B2FA"/><path d="M26.362.5h21.275l10.175 2.775 7.863 3.7-3.7 2.775-12.025 3.7h-25.9l-12.025-3.7-3.7-2.775 7.862-3.7L26.362.5z" fill="#7EC7FF"/><path fill="url(#paint0_linear_1_545)" d="M-3 0h77v65H-3z"/></g><defs><linearGradient id="paint0_linear_1_545" x1="-3" y1="0" x2="61.078" y2="75.908" gradientUnits="userSpaceOnUse"><stop stop-color="#24FF00" stop-opacity=".52"/><stop offset="1" stop-color="#fff" stop-opacity="0"/></linearGradient></defs></svg>