<svg width="25" height="25" fill="none" xmlns="http://www.w3.org/2000/svg"><path d="M12.059.848c3.26 0 3.667.012 4.946.071 1.278.06 2.148.26 2.914.557a5.84 5.84 0 012.126 1.38 5.872 5.872 0 011.384 2.12c.296.762.498 1.63.558 2.905.056 1.276.072 1.681.072 4.932 0 3.251-.012 3.657-.072 4.932-.06 1.275-.262 2.142-.558 2.906a5.843 5.843 0 01-1.384 2.12 5.9 5.9 0 01-2.126 1.38c-.765.295-1.636.496-2.914.556-1.28.056-1.686.072-4.946.072s-3.668-.012-4.947-.072c-1.278-.06-2.148-.261-2.913-.556a5.871 5.871 0 01-2.127-1.38A5.867 5.867 0 01.69 20.65c-.3-.762-.5-1.63-.56-2.905-.057-1.275-.072-1.68-.072-4.932 0-3.25.012-3.656.072-4.932.06-1.276.26-2.142.558-2.905.3-.8.772-1.523 1.383-2.12A5.878 5.878 0 014.2 1.475c.765-.297 1.634-.497 2.913-.557C8.392.863 8.798.848 12.06.848zm0 5.982c-1.592 0-3.118.63-4.243 1.753a5.974 5.974 0 000 8.46 6.009 6.009 0 008.485 0 5.974 5.974 0 000-8.46A6.009 6.009 0 0012.06 6.83zm7.8-.299a1.502 1.502 0 00-3 0c0 .397.158.777.439 1.058a1.502 1.502 0 002.56-1.058zm-7.8 2.693c.954 0 1.87.378 2.545 1.05a3.585 3.585 0 010 5.077 3.605 3.605 0 01-5.091 0 3.584 3.584 0 010-5.076 3.605 3.605 0 012.546-1.051z" fill="#F8F8F8"/></svg>