<svg width="24" height="25" viewBox="0 0 24 25" fill="none" xmlns="http://www.w3.org/2000/svg"><path d="M11.558.35C5.186.35.02 5.707.02 12.315s5.166 11.966 11.538 11.966 11.539-5.358 11.539-11.966S17.93.35 11.558.35zm5.545 9.02c.008.125.008.256.008.384 0 3.92-2.88 8.437-8.141 8.437a7.903 7.903 0 01-4.394-1.33c.232.027.453.037.69.037 1.34 0 2.57-.47 3.552-1.266-1.257-.026-2.313-.881-2.674-2.056.44.066.837.066 1.29-.054a2.844 2.844 0 01-1.646-1.031 3.033 3.033 0 01-.643-1.88v-.037c.379.221.824.358 1.29.376A2.932 2.932 0 015.5 9.882a3.056 3.056 0 01-.34-1.4c0-.552.14-1.057.39-1.495a8.183 8.183 0 002.63 2.201c1.016.534 2.13.84 3.267.9-.404-2.017 1.049-3.649 2.795-3.649a2.81 2.81 0 012.089.935 5.53 5.53 0 001.815-.713 2.936 2.936 0 01-1.256 1.632 5.5 5.5 0 001.648-.462 6.124 6.124 0 01-1.435 1.538z" fill="#F8F8F8"/></svg>