<svg width="14" height="14" viewBox="0 0 14 14" fill="none" xmlns="http://www.w3.org/2000/svg"><path d="M10.052 8.4c.056-.462.098-.924.098-1.4 0-.476-.042-.938-.098-1.4h2.366c.112.448.182.917.182 1.4 0 .483-.07.952-.182 1.4h-2.366zm-1.239 3.892c.42-.777.742-1.617.966-2.492h2.065a5.621 5.621 0 01-3.031 2.492zM8.638 8.4H5.362A9.288 9.288 0 015.25 7c0-.476.042-.945.112-1.4h3.276c.063.455.112.924.112 1.4 0 .476-.049.938-.112 1.4zM7 12.572A9.494 9.494 0 015.663 9.8h2.674A9.494 9.494 0 017 12.572zM4.2 4.2H2.156A5.546 5.546 0 015.18 1.708c-.42.777-.735 1.617-.98 2.492zM2.156 9.8H4.2c.245.875.56 1.715.98 2.492A5.605 5.605 0 012.156 9.8zm-.574-1.4A5.77 5.77 0 011.4 7c0-.483.07-.952.182-1.4h2.366A11.56 11.56 0 003.85 7c0 .476.042.938.098 1.4H1.582zM7 1.421A9.533 9.533 0 018.337 4.2H5.663A9.533 9.533 0 017 1.421zM11.844 4.2H9.779a10.955 10.955 0 00-.966-2.492A5.59 5.59 0 0111.844 4.2zM7 0C3.129 0 0 3.15 0 7a7 7 0 107-7z" fill="#F8F8F8"/></svg>